<?xml version="1.0" encoding="UTF-8"?>
<svg id="Layer_1" data-name="Layer 1" xmlns="http://www.w3.org/2000/svg" viewBox="0 0 2982 850">
  <defs>
    <style>
      .cls-1 {
        fill: none;
        fill-rule: evenodd;
        stroke: #231f20;
        stroke-miterlimit: 10;
      }
    </style>
  </defs>
  <path class="cls-1" d="M-.37,283.98c38.34,15,208.38,82.05,216.37,94.02,9,13.5,99,17,99,17,0,0,16.5,20.52,24,25s59.88-44.7,105-46c100.56-2.9,330,182.59,423,178s153.7-103.16,190-108c67.58-9,114.58-8.48,167,25,54.01-21.39,131-24,131-24,0,0,99.55,39,240,144,114.59-3.14,355-312.07,448-311,58.5,1.07,71,73,95,76,54,1.5,22.5-29.5,90-31s158.88,283.56,300,281c129.48-2.35,205-318.08,292-329,58.38-7.33,120.13-5.98,162.15-2.61"/>
</svg>